{"title":"The Canyons 2013 WEBRip XViD juggs","uid":8774774,"size":736180587,"categoryP":"video","categoryS":"movies","magnet":"?xt=urn:btih:5b7bfe98ce51f02e491a8d487731ea974fd96e7d&amp;dn=The+Canyons+2013+WEBRip+XViD+juggs&amp;tr=udp%3A%2F%2Ftracker.openbittorrent.com%3A80&amp;tr=udp%3A%2F%2Fopen.demonii.com%3A1337&amp;tr=udp%3A%2F%2Ftracker.coppersurfer.tk%3A6969&amp;tr=udp%3A%2F%2Fexodus.desync.com%3A6969","seeders":4,"leechers":2,"uploader":"juggs99","files":4,"time":1375526825,"description":"Format                                   : AVI\nFormat/Info                              : Audio Video Interleave\nFile size                                : 698 MiB\nDuration                                 : 1h 39mn\nOverall bit rate                         : 980 Kbps\nWriting library                          : VirtualDub build 32842/release\n\nVideo\nID                                       : 0\nFormat                                   : MPEG-4 Visual\nFormat profile                           : Advanced Simple@L5\nFormat settings, BVOP                    : 2\nFormat settings, QPel                    : No\nFormat settings, GMC                     : No warppoints\nFormat settings, Matrix                  : Default (H.263)\nMuxing mode                              : Packed bitstream\nCodec ID                                 : XVID\nCodec ID/Hint                            : XviD\nDuration                                 : 1h 39mn\nBit rate                                 : 842 Kbps\nWidth                                    : 640 pixels\nHeight                                   : 272 pixels\nDisplay aspect ratio                     : 2.35:1\nFrame rate                               : 23.976 fps\nColor space                              : YUV\nChroma subsampling                       : 4:2:0\nBit depth                                : 8 bits\nScan type                                : Progressive\nCompression mode                         : Lossy\nBits/(Pixel*Frame)                       : 0.202\nStream size                              : 600 MiB (86%)\nWriting library                          : XviD 64\n\nAudio\nID                                       : 1\nFormat                                   : MPEG Audio\nFormat version                           : Version 1\nFormat profile                           : Layer 3\nCodec ID                                 : 55\nCodec ID/Hint                            : MP3\nDuration                                 : 1h 39mn\nBit rate mode                            : Constant\nBit rate                                 : 128 Kbps\nChannel(s)                               : 2 channels\nSampling rate                            : 48.0 KHz\nCompression mode                         : Lossy\nStream size                              : 91.2 MiB (13%)\nAlignment                                : Split accross interleaves\nInterleave, duration                     : 42 ms (1.00 video frame)\nInterleave, preload duration             : 500 ms\nWriting library                          : LAME3.99r\n &lt;a href=&quot;\nhttp://www.shotpix.com/photos/20130803137551908112628.png&quot; rel=&quot;nofollow&quot; target=&quot;_NEW&quot;&gt;\nhttp://www.shotpix.com/photos/20130803137551908112628.png&lt;/a&gt; &lt;a href=&quot;\nhttp://www.shotpix.com/photos/20130803137551908997296.png&quot; rel=&quot;nofollow&quot; target=&quot;_NEW&quot;&gt;\nhttp://www.shotpix.com/photos/20130803137551908997296.png&lt;/a&gt; &lt;a href=&quot;\nhttp://www.shotpix.com/photos/20130803137551909127739.png&quot; rel=&quot;nofollow&quot; target=&quot;_NEW&quot;&gt;\nhttp://www.shotpix.com/photos/20130803137551909127739.png&lt;/a&gt;","torrent":{"xt":"urn:btih:5b7bfe98ce51f02e491a8d487731ea974fd96e7d","amp;dn":"The+Canyons+2013+WEBRip+XViD+juggs","amp;tr":["udp%3A%2F%2Ftracker.openbittorrent.com%3A80","udp%3A%2F%2Fopen.demonii.com%3A1337","udp%3A%2F%2Ftracker.coppersurfer.tk%3A6969","udp%3A%2F%2Fexodus.desync.com%3A6969"],"infoHash":"5b7bfe98ce51f02e491a8d487731ea974fd96e7d","infoHashBuffer":{"type":"Buffer","data":[91,123,254,152,206,81,240,46,73,26,141,72,119,49,234,151,79,217,110,125]},"announce":[],"urlList":[]}}